PathFileType	4	(X/Y/Z)	C:\Users\WrightLab\Desktop\Jo\P1_boxCal7.trc
DataRate	CameraRate	NumFrames	NumMarkers	Units	OrigDataRate	OrigDataStartFrame	OrigNumFrames
100.00	100.00	       16	19	mm	100.00	229	       609
Frame#	Time	Headset_Front			Headset_Back			Headset_Left			Headset_Right			Left_Shoulder			Right_Shoulder			Sternum			C7			Left Elbow			Right Elbow			Left Wrist			Right Wrist			Left ASIS			Right ASIS			S2			Left Knee			Right Knee			Left Ankle			Right Ankle			
		X1	Y1	Z1	X2	Y2	Z2	X3	Y3	Z3	X4	Y4	Z4	X5	Y5	Z5	X6	Y6	Z6	X7	Y7	Z7	X8	Y8	Z8	X9	Y9	Z9	X10	Y10	Z10	X11	Y11	Z11	X12	Y12	Z12	X13	Y13	Z13	X14	Y14	Z14	X15	Y15	Z15	X16	Y16	Z16	X17	Y17	Z17	X18	Y18	Z18	X19	Y19	Z19	

229	2.280	-503.94775	1372.81104	280.64825	-598.01398	1519.17126	25.99422	-457.80475	1440.63440	89.44203	-637.14136	1418.89380	227.80023	-423.63464	1270.09973	-23.18182	-758.42139	1272.04211	143.23131	-550.99445	1168.88330	193.51944	-628.75928	1275.32458	-43.72732	-383.72711	951.61163	-98.62618	-869.52655	1009.65326	124.72231	-280.86545	770.43738	-82.77172	-931.35596	789.75623	212.70447	-461.74762	884.76984	189.21484	-657.05719	888.05908	229.78668	-634.17181	885.57910	-99.54073	-433.84329	451.62164	132.15862	-810.05493	446.55630	148.46428	-491.36334	79.26731	154.41069	-873.01544	193.91089	-96.76140	
230	2.290	-499.39987	1373.10193	288.94879	-593.06903	1520.90149	34.57307	-453.44250	1441.83350	97.39931	-632.45483	1419.95227	236.04910	-419.75146	1271.58289	-16.10796	-754.08411	1273.32068	151.10774	-546.82343	1169.68945	201.44803	-625.00439	1276.98083	-36.47808	-378.35876	952.61322	-90.25964	-865.07355	1010.66919	132.89322	-274.89093	772.01117	-72.68383	-925.85370	789.93469	219.79143	-455.10889	886.21265	195.98856	-651.27228	889.18591	237.48225	-630.53027	886.67944	-91.54027	-430.89682	450.72681	133.00714	-804.90497	450.20746	168.81348	-491.38812	78.94315	154.66487	-868.24323	199.16534	-77.65423	
231	2.300	-495.30878	1374.03503	296.78198	-588.22345	1522.85669	42.80475	-448.81714	1442.91443	105.22689	-627.67371	1420.62842	243.51741	-415.73428	1272.66321	-8.82471	-750.42200	1274.54126	159.46587	-542.10333	1171.02307	208.93073	-621.01044	1277.95093	-28.55898	-372.30121	953.75116	-82.38304	-860.84485	1011.38837	141.25888	-267.92328	773.37909	-63.28370	-919.84644	789.88092	227.69966	-448.95355	887.55096	203.80884	-645.78644	890.02740	245.48213	-626.83734	887.96088	-83.56293	-427.97223	449.18365	133.86241	-798.63452	454.23929	189.57191	-491.37115	79.07640	154.28989	-862.24487	203.54169	-59.43514	
232	2.310	-490.51889	1373.56848	304.49402	-583.62988	1524.29993	51.34970	-444.10840	1443.61829	113.63494	-623.26892	1421.93323	251.56747	-411.80109	1274.31299	-1.17394	-746.37378	1275.32861	167.48808	-537.77606	1171.39319	216.14037	-617.24738	1279.64917	-21.10151	-367.05151	955.28174	-73.11396	-858.00323	1012.03381	148.26869	-262.47278	774.60339	-52.93100	-914.93286	790.62097	235.24127	-442.61417	888.88135	211.02711	-640.83759	891.08044	253.84845	-623.46472	888.84290	-75.30456	-424.67188	448.10397	134.40126	-787.77515	457.27087	212.02396	-491.24503	78.75795	154.30797	-856.31073	207.21872	-40.85239	
233	2.320	-485.33749	1373.31335	311.91309	-578.90594	1526.29675	59.88150	-439.80118	1444.39746	121.50003	-619.41913	1422.90637	259.71548	-407.70859	1275.30579	6.91837	-742.68488	1276.67578	175.30716	-534.53613	1172.68994	224.58701	-613.44495	1280.42517	-12.21726	-361.82367	956.80243	-64.73638	-852.37341	1012.86523	156.48767	-256.07196	777.46979	-44.35907	-910.29877	791.16052	241.54251	-436.87640	890.71545	219.87743	-636.09973	891.79681	261.70218	-619.56671	889.72552	-67.45173	-422.56079	446.79172	134.50406	-779.90869	462.00705	232.21574	-491.16608	78.42551	154.30005	-851.00903	210.80875	-21.59747	
234	2.330	-482.15030	1374.18835	319.79596	-574.37872	1528.00903	67.90044	-435.17221	1445.96057	128.99538	-614.76788	1423.62146	267.23395	-404.36420	1276.78638	13.91300	-738.83374	1277.39673	182.33328	-530.43512	1173.66357	231.66658	-609.83606	1282.06848	-5.88936	-356.99542	957.94403	-57.31693	-848.04272	1013.69568	164.43826	-249.02177	779.20007	-34.78128	-905.91907	791.74561	250.00015	-432.86859	891.95844	224.47906	-631.01172	892.79950	269.95151	-616.58032	891.56274	-60.25824	-418.48291	446.84814	135.34163	-771.73193	466.16632	251.78918	-491.26624	78.28062	154.10867	-845.85730	213.39633	-0.59282	
235	2.340	-476.94769	1373.84644	327.18750	-570.00134	1529.67883	76.44909	-431.08740	1447.18811	137.31296	-610.45782	1424.63757	275.37857	-400.73138	1278.68652	21.35831	-735.39496	1278.55347	189.86609	-526.35297	1174.68750	238.40570	-606.06360	1283.58936	2.07083	-351.49356	959.50787	-49.93027	-843.76019	1014.36212	171.69914	-243.00407	781.20966	-26.08612	-901.85712	792.73663	258.09955	-427.37430	893.05859	231.05972	-626.07312	893.13635	278.10181	-613.99365	893.92444	-52.31338	-416.28732	446.51675	136.51492	-763.06537	469.69000	270.68570	-491.12360	78.50919	152.87624	-840.08264	215.90228	20.41348	
236	2.350	-473.35400	1374.83752	334.83368	-565.69330	1531.26538	85.25576	-427.10431	1447.96887	145.10162	-606.21466	1425.47693	283.35364	-397.04947	1280.07190	28.22086	-731.24719	1279.58813	198.17757	-523.80725	1175.85608	247.26988	-602.30597	1284.58044	10.13762	-346.79242	960.26648	-40.07003	-840.31091	1014.96802	177.67572	-237.41388	783.77258	-17.22591	-897.14124	793.12598	266.04050	-422.86282	894.06464	236.92607	-621.04688	894.15588	286.15848	-611.27325	895.61090	-44.60474	-413.36893	446.87820	136.67180	-752.46204	473.81219	289.83539	-492.44824	78.80916	151.05594	-832.94342	216.27728	41.92502	
237	2.360	-467.81976	1374.81311	341.95087	-561.44049	1532.97241	93.20469	-422.47308	1449.37866	152.73932	-601.58252	1426.17700	290.96521	-393.32669	1281.32739	35.28410	-727.39880	1280.78467	206.08539	-518.24628	1176.20361	253.86774	-598.76251	1286.51575	17.96704	-341.69241	962.90533	-34.26511	-835.10773	1016.19806	185.40123	-231.25198	785.99969	-8.27034	-892.88141	793.56860	273.98761	-419.17914	894.49969	241.85524	-616.84906	895.69360	295.44183	-609.02490	897.56976	-36.89581	-412.18115	446.54544	137.14183	-742.37555	478.68250	307.18365	-492.60263	79.46499	148.94084	-825.73792	215.97810	64.67001	
238	2.370	-465.08810	1376.54114	350.25708	-557.37982	1534.43542	101.83445	-418.61066	1450.57849	160.18924	-597.96277	1427.04553	299.38596	-389.88086	1283.41394	41.83312	-723.39386	1281.98901	214.10921	-515.54016	1178.49121	261.58578	-595.43475	1287.65051	25.51864	-336.88571	964.62024	-26.92509	-830.96991	1017.19708	191.84389	-225.99307	788.03540	0.74965	-888.95160	794.77002	281.55194	-415.26227	895.50616	246.34309	-611.11627	896.60413	303.43973	-606.94574	899.75995	-29.08446	-411.71579	446.13885	137.08842	-731.32886	482.85953	323.89233	-493.97318	80.58781	146.35326	-817.54053	213.74669	86.97559	
239	2.380	-459.45639	1375.44019	357.30005	-553.43799	1535.72424	109.66750	-414.36789	1451.78259	167.46138	-593.71069	1428.14355	307.57141	-386.45044	1285.16089	48.52730	-719.25482	1282.94446	222.67029	-510.23206	1179.09192	268.17517	-591.88245	1289.29382	32.78966	-332.35632	966.48218	-20.66513	-827.00146	1018.38049	199.18785	-220.74182	789.85236	9.34907	-884.97351	796.08984	288.24847	-412.35028	896.97595	251.67648	-606.15491	897.90063	311.92722	-605.07941	900.90814	-20.04008	-410.74759	445.93250	137.16010	-721.24805	488.22858	339.16187	-495.18109	80.86893	145.19199	-809.76923	211.08533	110.97662	
240	2.390	-455.88846	1376.76343	365.58115	-549.49750	1536.97705	117.77505	-410.72891	1452.05237	175.79918	-589.12274	1428.35815	314.89294	-382.96942	1286.56628	55.18112	-714.96790	1284.04333	230.53416	-506.63809	1180.75818	275.63300	-588.36884	1290.07300	40.89492	-327.25235	968.02728	-13.18854	-822.96954	1019.39612	206.65553	-216.24373	792.27893	17.48592	-880.53442	796.29730	295.61652	-408.39404	897.51593	256.86298	-600.44434	898.79987	319.14429	-603.46906	903.59406	-13.30405	-409.84216	445.32813	137.43607	-711.06903	493.07840	353.18073	-495.06741	82.11744	142.84492	-801.03546	208.17119	134.57082	
241	2.400	-451.36481	1377.27795	372.00998	-545.59106	1538.17346	125.39162	-406.71390	1453.67102	183.32242	-585.38867	1429.14331	323.24094	-379.39157	1287.79138	62.46281	-710.87109	1285.25305	238.74690	-501.58176	1181.87012	282.29196	-585.04816	1291.40918	48.07954	-323.89392	968.48004	-4.07491	-820.38116	1020.83783	212.86908	-211.13591	794.13007	26.14226	-876.71252	797.52112	301.95874	-404.55945	898.92474	260.10938	-594.74170	900.00970	326.73221	-601.99530	904.60767	-5.55285	-408.95123	445.68814	138.02870	-700.03784	496.96704	366.10516	-496.64453	82.58315	141.33591	-791.45776	203.97437	158.42084	
242	2.410	-448.40393	1378.05493	380.76318	-540.85144	1538.13574	134.63181	-402.83203	1454.27722	190.55124	-580.62897	1429.57886	330.60989	-376.09558	1289.16650	69.16185	-706.85162	1286.24133	247.07872	-497.37363	1183.21497	289.36597	-581.59161	1292.57007	56.15651	-318.73035	970.43787	0.36327	-815.03265	1021.78717	221.43178	-204.36192	795.77173	34.64623	-872.87994	798.79883	309.34079	-401.46368	899.44672	264.85431	-589.15723	901.23114	334.44644	-601.27441	906.02008	2.51667	-408.19519	446.68716	138.11357	-689.27576	500.62543	378.12292	-497.46341	82.75862	140.31007	-781.58490	198.58185	182.61899	
243	2.420	-442.99655	1377.19238	387.40369	-537.65063	1539.59473	142.97758	-398.92636	1454.60120	198.31050	-576.92224	1430.05664	338.92844	-372.76511	1289.70483	76.19306	-702.38397	1287.11877	254.87775	-492.26941	1184.17175	296.11340	-578.26056	1292.93005	64.12785	-313.80469	971.99701	7.81287	-811.07074	1023.10352	229.57240	-199.52646	797.60693	42.91338	-869.18201	799.86017	315.95709	-397.86154	900.79962	270.50134	-583.51184	902.55249	341.85599	-600.33832	906.22272	11.56309	-407.60312	447.00620	138.89032	-679.60175	504.59079	390.40216	-498.12271	83.66830	139.52768	-770.93085	192.73596	206.69122	
244	2.430	-439.42844	1377.66467	395.75415	-533.76367	1540.24170	150.98590	-394.82693	1455.13635	207.11702	-572.50580	1430.17676	346.54202	-369.20612	1290.84338	82.72057	-698.20728	1287.89697	263.26114	-488.41754	1184.59253	303.73087	-574.81281	1293.90991	71.16344	-309.06927	972.71484	13.24631	-807.23914	1024.21216	236.30679	-194.43431	798.53497	52.18389	-866.23438	800.69165	323.05792	-394.51971	901.22382	275.10211	-577.63025	903.91827	349.70172	-599.17291	907.23083	19.69285	-406.97809	447.73148	140.95546	-667.70447	506.93158	400.09161	-498.43411	83.77805	139.58163	-759.74530	186.34041	231.70638	
